<mxfile host="app.diagrams.net" modified="2023-09-11T20:12:47.071Z" agent="Mozilla/5.0 (Macintosh; Intel Mac OS X 10_15_7) AppleWebKit/605.1.15 (KHTML, like Gecko) Version/16.6 Safari/605.1.15" etag="rJXqJA2s9q9EumNXO5y7" version="21.7.4" type="google">
  <diagram name="Page-1" id="90a13364-a465-7bf4-72fc-28e22215d7a0">
    <mxGraphModel grid="1" page="1" gridSize="10" guides="1" tooltips="1" connect="1" arrows="1" fold="1" pageScale="1.5" pageWidth="1169" pageHeight="827" background="#ffffff" math="0" shadow="0">
      <root>
        <mxCell id="0" style=";html=1;" />
        <mxCell id="1" style=";html=1;" parent="0" />
        <mxCell id="aC57QmPyYTqG6Asludqg-9" value="" style="rounded=0;whiteSpace=wrap;html=1;fontSize=16;" vertex="1" parent="1">
          <mxGeometry x="-20" y="350" width="740" height="730" as="geometry" />
        </mxCell>
        <mxCell id="zSoxXOAhGFOt2usmLHU0-1" value="" style="rounded=0;whiteSpace=wrap;html=1;fillColor=none;dashed=1;strokeWidth=2;" vertex="1" parent="1">
          <mxGeometry y="370" width="700" height="480" as="geometry" />
        </mxCell>
        <mxCell id="zSoxXOAhGFOt2usmLHU0-2" value="" style="rounded=0;whiteSpace=wrap;html=1;fillColor=none;dashed=1;strokeWidth=2;" vertex="1" parent="1">
          <mxGeometry y="850" width="700" height="210" as="geometry" />
        </mxCell>
        <mxCell id="S8yp5X4-lJhxRksTFqpk-6" value="" style="rounded=1;whiteSpace=wrap;html=1;fillColor=none;dashed=1;" vertex="1" parent="1">
          <mxGeometry x="520" y="820" width="155" height="220" as="geometry" />
        </mxCell>
        <mxCell id="9j5Bc3N9rgv02oG_bQQu-1" value="&lt;b&gt;&lt;font style=&quot;font-size: 20px&quot;&gt;MQTT Server&lt;/font&gt;&lt;/b&gt;" style="ellipse;shape=cloud;whiteSpace=wrap;html=1;" vertex="1" parent="1">
          <mxGeometry x="87.5" y="80" width="523" height="170" as="geometry" />
        </mxCell>
        <mxCell id="9j5Bc3N9rgv02oG_bQQu-8" value="Manufacturer Part #PN-12110215TC-12&lt;br&gt;Resistive Sensor" style="rounded=0;whiteSpace=wrap;html=1;" vertex="1" parent="1">
          <mxGeometry x="40" y="760" width="120" height="60" as="geometry" />
        </mxCell>
        <mxCell id="J8ns3n-xOa6iXa_PQh_Z-5" style="edgeStyle=orthogonalEdgeStyle;rounded=0;orthogonalLoop=1;jettySize=auto;html=1;exitX=0.5;exitY=0;exitDx=0;exitDy=0;entryX=0;entryY=0.5;entryDx=0;entryDy=0;" edge="1" parent="1" source="9j5Bc3N9rgv02oG_bQQu-11" target="9j5Bc3N9rgv02oG_bQQu-30">
          <mxGeometry relative="1" as="geometry" />
        </mxCell>
        <mxCell id="9j5Bc3N9rgv02oG_bQQu-11" value="&lt;div&gt;&lt;div&gt;Manufacturer&lt;/div&gt;&lt;div&gt;Part # LM358WDT&lt;br&gt;&lt;/div&gt;Op Amp &lt;br&gt;&lt;/div&gt;&lt;div&gt;(Non-Inverting)&lt;br&gt;&lt;/div&gt;" style="rounded=0;whiteSpace=wrap;html=1;" vertex="1" parent="1">
          <mxGeometry x="40" y="672" width="120" height="60" as="geometry" />
        </mxCell>
        <mxCell id="9j5Bc3N9rgv02oG_bQQu-15" style="edgeStyle=orthogonalEdgeStyle;rounded=0;sketch=0;orthogonalLoop=1;jettySize=auto;html=1;startArrow=none;startFill=0;strokeWidth=1;" edge="1" parent="1" source="9j5Bc3N9rgv02oG_bQQu-8" target="9j5Bc3N9rgv02oG_bQQu-11">
          <mxGeometry x="30" y="40" as="geometry" />
        </mxCell>
        <mxCell id="9j5Bc3N9rgv02oG_bQQu-19" value="&lt;div&gt;Manufacturer&lt;/div&gt;&lt;div&gt;Part # L293D&lt;/div&gt;&lt;div&gt;Motor Driver&lt;/div&gt;" style="rounded=0;whiteSpace=wrap;html=1;" vertex="1" parent="1">
          <mxGeometry x="530" y="825" width="120" height="60" as="geometry" />
        </mxCell>
        <mxCell id="9j5Bc3N9rgv02oG_bQQu-20" value="&lt;div&gt;Manufacturer&lt;/div&gt;&lt;div&gt;Part # 114090046&lt;/div&gt;&lt;div&gt;&lt;span style=&quot;background-color: rgb(255 , 255 , 51)&quot;&gt;&lt;/span&gt; 12V High-Power 25D mm Gearmotor&lt;/div&gt;" style="rounded=0;whiteSpace=wrap;html=1;" vertex="1" parent="1">
          <mxGeometry x="530" y="942.5" width="120" height="60" as="geometry" />
        </mxCell>
        <mxCell id="9j5Bc3N9rgv02oG_bQQu-22" style="edgeStyle=orthogonalEdgeStyle;rounded=0;sketch=0;orthogonalLoop=1;jettySize=auto;html=1;entryX=0.5;entryY=0;entryDx=0;entryDy=0;startArrow=none;startFill=0;strokeWidth=1;" edge="1" parent="1" source="9j5Bc3N9rgv02oG_bQQu-19" target="9j5Bc3N9rgv02oG_bQQu-20">
          <mxGeometry x="30" y="40" as="geometry" />
        </mxCell>
        <mxCell id="9j5Bc3N9rgv02oG_bQQu-24" value="Pushbutton" style="rounded=0;whiteSpace=wrap;html=1;" vertex="1" parent="1">
          <mxGeometry x="30" y="480" width="120" height="60" as="geometry" />
        </mxCell>
        <mxCell id="9j5Bc3N9rgv02oG_bQQu-26" style="edgeStyle=orthogonalEdgeStyle;rounded=0;sketch=0;orthogonalLoop=1;jettySize=auto;html=1;entryX=0;entryY=0.5;entryDx=0;entryDy=0;startArrow=none;startFill=0;strokeWidth=1;" edge="1" parent="1" source="9j5Bc3N9rgv02oG_bQQu-24" target="9j5Bc3N9rgv02oG_bQQu-29">
          <mxGeometry x="30" y="40" as="geometry" />
        </mxCell>
        <mxCell id="9j5Bc3N9rgv02oG_bQQu-21" style="edgeStyle=orthogonalEdgeStyle;rounded=0;sketch=0;orthogonalLoop=1;jettySize=auto;html=1;exitX=1;exitY=0.5;exitDx=0;exitDy=0;entryX=0.5;entryY=0;entryDx=0;entryDy=0;startArrow=none;startFill=0;strokeWidth=1;" edge="1" parent="1" source="9j5Bc3N9rgv02oG_bQQu-31" target="9j5Bc3N9rgv02oG_bQQu-19">
          <mxGeometry x="30" y="40" as="geometry" />
        </mxCell>
        <mxCell id="JOMnKlJys3NHe0t_5HwK-2" value="&lt;div style=&quot;font-size: 8px&quot;&gt;digital - parallel&lt;/div&gt;&lt;div style=&quot;font-size: 8px&quot;&gt;(1 pin)&lt;br&gt;&lt;/div&gt;" style="text;html=1;strokeColor=none;fillColor=none;align=center;verticalAlign=middle;whiteSpace=wrap;rounded=0;fontSize=8;rotation=-90;" vertex="1" parent="1">
          <mxGeometry x="140" y="550" width="60" height="20" as="geometry" />
        </mxCell>
        <mxCell id="JOMnKlJys3NHe0t_5HwK-3" value="&lt;div style=&quot;font-size: 8px&quot;&gt;&lt;div&gt;analog&lt;/div&gt;&lt;div&gt;(0-3.3V, 1 pin)&lt;/div&gt;&lt;/div&gt;" style="text;html=1;strokeColor=none;fillColor=none;align=center;verticalAlign=middle;whiteSpace=wrap;rounded=0;fontSize=8;rotation=0;" vertex="1" parent="1">
          <mxGeometry x="110" y="620" width="60" height="20" as="geometry" />
        </mxCell>
        <mxCell id="jpkk4kh-KNIoBJhRxnaC-1" value="&lt;div style=&quot;font-size: 8px&quot;&gt;analog&lt;/div&gt;&lt;div style=&quot;font-size: 8px&quot;&gt;(0-1V, 1 pin)&lt;br&gt;&lt;/div&gt;" style="text;html=1;strokeColor=none;fillColor=none;align=center;verticalAlign=middle;whiteSpace=wrap;rounded=0;fontSize=8;rotation=0;" vertex="1" parent="1">
          <mxGeometry x="100" y="740" width="60" height="20" as="geometry" />
        </mxCell>
        <mxCell id="jpkk4kh-KNIoBJhRxnaC-2" value="&lt;div style=&quot;font-size: 8px&quot;&gt;analog&lt;/div&gt;&lt;div style=&quot;font-size: 8px&quot;&gt;(0-3.3V, 1 pin)&lt;/div&gt;" style="text;html=1;strokeColor=none;fillColor=none;align=center;verticalAlign=middle;whiteSpace=wrap;rounded=0;fontSize=8;rotation=-90;" vertex="1" parent="1">
          <mxGeometry x="335" y="800" width="60" height="20" as="geometry" />
        </mxCell>
        <mxCell id="S8yp5X4-lJhxRksTFqpk-14" value="" style="rounded=1;whiteSpace=wrap;html=1;fillColor=none;dashed=1;" vertex="1" parent="1">
          <mxGeometry x="197.5" y="400" width="310" height="380" as="geometry" />
        </mxCell>
        <mxCell id="jpkk4kh-KNIoBJhRxnaC-5" value="&lt;div style=&quot;font-size: 8px&quot;&gt;digital - parallel&lt;br&gt;&lt;/div&gt;&lt;div style=&quot;font-size: 8px&quot;&gt;(1 pin)&lt;/div&gt;" style="text;html=1;strokeColor=none;fillColor=none;align=center;verticalAlign=middle;whiteSpace=wrap;rounded=0;fontSize=8;rotation=0;" vertex="1" parent="1">
          <mxGeometry x="512.5" y="620" width="60" height="20" as="geometry" />
        </mxCell>
        <mxCell id="jpkk4kh-KNIoBJhRxnaC-6" value="&lt;div style=&quot;font-size: 8px&quot;&gt;analog&lt;/div&gt;&lt;div style=&quot;font-size: 8px&quot;&gt;(0-12V, 1 pin)&lt;br&gt;&lt;/div&gt;" style="text;html=1;strokeColor=none;fillColor=none;align=center;verticalAlign=middle;whiteSpace=wrap;rounded=0;fontSize=8;rotation=0;" vertex="1" parent="1">
          <mxGeometry x="352.5" y="930" width="60" height="20" as="geometry" />
        </mxCell>
        <mxCell id="jpkk4kh-KNIoBJhRxnaC-7" value="&lt;div style=&quot;font-size: 8px&quot;&gt;analog&lt;br&gt;&lt;/div&gt;&lt;div style=&quot;font-size: 8px&quot;&gt;(0-12V, 2 pins)&lt;br&gt;&lt;/div&gt;" style="text;html=1;strokeColor=none;fillColor=none;align=center;verticalAlign=middle;whiteSpace=wrap;rounded=0;fontSize=8;rotation=0;" vertex="1" parent="1">
          <mxGeometry x="590" y="900" width="60" height="20" as="geometry" />
        </mxCell>
        <mxCell id="J8ns3n-xOa6iXa_PQh_Z-4" style="edgeStyle=orthogonalEdgeStyle;rounded=0;orthogonalLoop=1;jettySize=auto;html=1;exitX=0.5;exitY=1;exitDx=0;exitDy=0;entryX=0.5;entryY=0;entryDx=0;entryDy=0;" edge="1" parent="1" source="9j5Bc3N9rgv02oG_bQQu-36" target="9j5Bc3N9rgv02oG_bQQu-37">
          <mxGeometry relative="1" as="geometry" />
        </mxCell>
        <mxCell id="J8ns3n-xOa6iXa_PQh_Z-11" value="&lt;p style=&quot;line-height: 120%&quot;&gt;Manufacturer &lt;br&gt;Part #PIC18F47Q10&lt;br&gt;3.3V 1.5A AC-DC Wall Power Supply&lt;br&gt;&lt;/p&gt;" style="rounded=0;whiteSpace=wrap;html=1;" vertex="1" parent="1">
          <mxGeometry x="0.5" y="370" width="120" height="60" as="geometry" />
        </mxCell>
        <mxCell id="J8ns3n-xOa6iXa_PQh_Z-14" value="Manufacturer&lt;div&gt;Part #&lt;/div&gt;&lt;div&gt;12V 1A AC-DC Wall Power Supply&lt;/div&gt;" style="rounded=0;whiteSpace=wrap;html=1;" vertex="1" parent="1">
          <mxGeometry x="0.5" y="850" width="120" height="60" as="geometry" />
        </mxCell>
        <mxCell id="aC57QmPyYTqG6Asludqg-2" value="&lt;div style=&quot;font-size: 8px;&quot;&gt;digital - serial&lt;br style=&quot;font-size: 8px;&quot;&gt;(UART, 2 pins)&lt;/div&gt;" style="edgeStyle=orthogonalEdgeStyle;rounded=0;orthogonalLoop=1;jettySize=auto;html=1;fontSize=8;startArrow=classic;startFill=1;" edge="1" parent="1" source="9j5Bc3N9rgv02oG_bQQu-41" target="9j5Bc3N9rgv02oG_bQQu-40">
          <mxGeometry x="-0.0013" y="-35" relative="1" as="geometry">
            <mxPoint x="70" as="offset" />
          </mxGeometry>
        </mxCell>
        <mxCell id="aC57QmPyYTqG6Asludqg-6" style="edgeStyle=orthogonalEdgeStyle;rounded=0;orthogonalLoop=1;jettySize=auto;html=1;startArrow=classic;startFill=1;fontSize=8;entryX=0.615;entryY=0.994;entryDx=0;entryDy=0;entryPerimeter=0;endArrow=none;endFill=0;dashed=1;" edge="1" parent="1" source="9j5Bc3N9rgv02oG_bQQu-49" target="9j5Bc3N9rgv02oG_bQQu-1">
          <mxGeometry relative="1" as="geometry">
            <mxPoint x="470" y="290" as="targetPoint" />
          </mxGeometry>
        </mxCell>
        <mxCell id="aC57QmPyYTqG6Asludqg-7" style="edgeStyle=orthogonalEdgeStyle;rounded=0;orthogonalLoop=1;jettySize=auto;html=1;entryX=0.385;entryY=0.912;entryDx=0;entryDy=0;entryPerimeter=0;startArrow=none;startFill=0;fontSize=8;dashed=1;" edge="1" parent="1" source="9j5Bc3N9rgv02oG_bQQu-42" target="9j5Bc3N9rgv02oG_bQQu-1">
          <mxGeometry relative="1" as="geometry" />
        </mxCell>
        <mxCell id="aC57QmPyYTqG6Asludqg-8" value="&lt;div&gt;&lt;b&gt;Block Diagram -- Team 302: Mobile Weather Station&lt;/b&gt;&lt;/div&gt;&lt;div style=&quot;font-size: 16px&quot;&gt;Kalin Comins, Hawthorne, Onyenso, Salt&lt;br style=&quot;font-size: 16px&quot;&gt;&lt;/div&gt;" style="text;html=1;strokeColor=none;fillColor=none;align=center;verticalAlign=middle;whiteSpace=wrap;rounded=0;fontSize=16;" vertex="1" parent="1">
          <mxGeometry x="20" y="20" width="660" height="60" as="geometry" />
        </mxCell>
        <mxCell id="aC57QmPyYTqG6Asludqg-13" style="edgeStyle=orthogonalEdgeStyle;rounded=0;orthogonalLoop=1;jettySize=auto;html=1;entryX=1;entryY=0.5;entryDx=0;entryDy=0;startArrow=none;startFill=0;endArrow=classic;fontSize=11;strokeWidth=1;sketch=0;" edge="1" parent="1" source="aC57QmPyYTqG6Asludqg-10" target="aC57QmPyYTqG6Asludqg-1">
          <mxGeometry relative="1" as="geometry" />
        </mxCell>
        <mxCell id="aC57QmPyYTqG6Asludqg-10" value="Microchip Snap Programmer" style="rounded=0;whiteSpace=wrap;html=1;fontSize=11;" vertex="1" parent="1">
          <mxGeometry x="540" y="240" width="120" height="60" as="geometry" />
        </mxCell>
        <mxCell id="qvk3YT8bBgQgHgqkpW-t-2" value="&lt;div style=&quot;font-size: 8px&quot;&gt;digital - parallel&lt;br&gt;&lt;/div&gt;&lt;div style=&quot;font-size: 8px&quot;&gt;(3 pins)&lt;/div&gt;" style="text;html=1;strokeColor=none;fillColor=none;align=center;verticalAlign=middle;whiteSpace=wrap;rounded=0;fontSize=8;rotation=0;" vertex="1" parent="1">
          <mxGeometry x="520" y="460" width="60" height="20" as="geometry" />
        </mxCell>
        <mxCell id="qvk3YT8bBgQgHgqkpW-t-4" value="&lt;div style=&quot;font-size: 8px&quot;&gt;Wireless (WiFi)&lt;/div&gt;" style="text;html=1;strokeColor=none;fillColor=none;align=center;verticalAlign=middle;whiteSpace=wrap;rounded=0;fontSize=8;rotation=0;" vertex="1" parent="1">
          <mxGeometry x="229" y="290" width="60" height="20" as="geometry" />
        </mxCell>
        <mxCell id="Jm0UklxG5w7mDhQz4Tn1-1" value="&lt;div style=&quot;font-size: 8px&quot;&gt;Wireless (WiFi)&lt;/div&gt;" style="text;html=1;strokeColor=none;fillColor=none;align=center;verticalAlign=middle;whiteSpace=wrap;rounded=0;fontSize=8;rotation=0;" vertex="1" parent="1">
          <mxGeometry x="350" y="290" width="60" height="20" as="geometry" />
        </mxCell>
        <mxCell id="S8yp5X4-lJhxRksTFqpk-7" value="Elton Salt" style="text;html=1;strokeColor=none;fillColor=none;align=left;verticalAlign=middle;whiteSpace=wrap;rounded=0;dashed=1;" vertex="1" parent="1">
          <mxGeometry x="530" y="1002.5" width="120" height="20" as="geometry" />
        </mxCell>
        <mxCell id="S8yp5X4-lJhxRksTFqpk-9" value="Kalin Comins" style="text;html=1;strokeColor=none;fillColor=none;align=left;verticalAlign=middle;whiteSpace=wrap;rounded=0;dashed=1;" vertex="1" parent="1">
          <mxGeometry x="40" y="820" width="120" height="20" as="geometry" />
        </mxCell>
        <mxCell id="S8yp5X4-lJhxRksTFqpk-12" style="edgeStyle=orthogonalEdgeStyle;rounded=0;orthogonalLoop=1;jettySize=auto;html=1;exitX=1;exitY=0.5;exitDx=0;exitDy=0;entryX=0.25;entryY=0;entryDx=0;entryDy=0;" edge="1" parent="1" source="9j5Bc3N9rgv02oG_bQQu-33" target="9j5Bc3N9rgv02oG_bQQu-19">
          <mxGeometry relative="1" as="geometry">
            <mxPoint x="490" y="683" as="sourcePoint" />
            <mxPoint x="527.5" y="692" as="targetPoint" />
          </mxGeometry>
        </mxCell>
        <mxCell id="S8yp5X4-lJhxRksTFqpk-13" value="&lt;div style=&quot;font-size: 8px&quot;&gt;digital - parallel&lt;br&gt;&lt;/div&gt;&lt;div style=&quot;font-size: 8px&quot;&gt;(1 pin)&lt;/div&gt;" style="text;html=1;strokeColor=none;fillColor=none;align=center;verticalAlign=middle;whiteSpace=wrap;rounded=0;fontSize=8;rotation=0;" vertex="1" parent="1">
          <mxGeometry x="500" y="660" width="60" height="20" as="geometry" />
        </mxCell>
        <mxCell id="9j5Bc3N9rgv02oG_bQQu-5" value="ESP32 Wifi Module" style="rounded=0;whiteSpace=wrap;html=1;strokeWidth=2;fillColor=#E6E6E6;" vertex="1" parent="1">
          <mxGeometry x="229" y="400" width="240" height="100" as="geometry" />
        </mxCell>
        <mxCell id="9j5Bc3N9rgv02oG_bQQu-41" value="&lt;div&gt;SERIAL&lt;/div&gt;RX,TX" style="rounded=0;whiteSpace=wrap;html=1;" vertex="1" parent="1">
          <mxGeometry x="318.6788990825688" y="470" width="52.75229357798166" height="30" as="geometry" />
        </mxCell>
        <mxCell id="9j5Bc3N9rgv02oG_bQQu-42" value="&lt;div&gt;publish&lt;/div&gt;EGR314_Team302" style="rounded=0;whiteSpace=wrap;html=1;" vertex="1" parent="1">
          <mxGeometry x="229" y="400" width="120" height="30" as="geometry" />
        </mxCell>
        <mxCell id="9j5Bc3N9rgv02oG_bQQu-49" value="&lt;div&gt;subscribe&lt;/div&gt;&lt;span style=&quot;background-color: rgb(255 , 255 , 51)&quot;&gt;TBD&lt;/span&gt;" style="rounded=0;whiteSpace=wrap;html=1;" vertex="1" parent="1">
          <mxGeometry x="349" y="400" width="120" height="30" as="geometry" />
        </mxCell>
        <mxCell id="S8yp5X4-lJhxRksTFqpk-8" value="" style="rounded=1;whiteSpace=wrap;html=1;fillColor=none;dashed=1;" vertex="1" parent="1">
          <mxGeometry x="15" y="655" width="155" height="195" as="geometry" />
        </mxCell>
        <mxCell id="EnYyPFW1mbr46gcVMj3I-1" value="" style="group" connectable="0" vertex="1" parent="1">
          <mxGeometry x="275" y="850" width="155" height="182.5" as="geometry" />
        </mxCell>
        <mxCell id="S8yp5X4-lJhxRksTFqpk-2" value="" style="rounded=1;whiteSpace=wrap;html=1;fillColor=none;dashed=1;" vertex="1" parent="EnYyPFW1mbr46gcVMj3I-1">
          <mxGeometry width="155" height="180" as="geometry" />
        </mxCell>
        <mxCell id="9j5Bc3N9rgv02oG_bQQu-37" value="&lt;div&gt;&lt;div&gt;Manufacturer&lt;/div&gt;&lt;div&gt;Part #&lt;br&gt;&lt;/div&gt;Op Amp &lt;br&gt;&lt;/div&gt;&lt;div&gt;(Difference Amplifier)&lt;br&gt;&lt;/div&gt;" style="rounded=0;whiteSpace=wrap;html=1;" vertex="1" parent="EnYyPFW1mbr46gcVMj3I-1">
          <mxGeometry x="17.5" y="10" width="120" height="60" as="geometry" />
        </mxCell>
        <mxCell id="_skWGeGQ9FX85H6YMqPT-2" value="&lt;div style=&quot;border-color: var(--border-color);&quot;&gt;Manufacturer&lt;/div&gt;&lt;div style=&quot;border-color: var(--border-color);&quot;&gt;Part #&lt;br&gt;LPS22HHTR&lt;br&gt;Pressure Sensor&lt;br&gt;&lt;/div&gt;" style="rounded=0;whiteSpace=wrap;html=1;" vertex="1" parent="EnYyPFW1mbr46gcVMj3I-1">
          <mxGeometry x="18.75" y="100" width="117.5" height="60" as="geometry" />
        </mxCell>
        <mxCell id="S8yp5X4-lJhxRksTFqpk-5" value="Enyinnaya Onyenso" style="text;html=1;strokeColor=none;fillColor=none;align=left;verticalAlign=middle;whiteSpace=wrap;rounded=0;dashed=1;" vertex="1" parent="EnYyPFW1mbr46gcVMj3I-1">
          <mxGeometry x="18.75" y="162.5" width="120" height="20" as="geometry" />
        </mxCell>
        <mxCell id="_skWGeGQ9FX85H6YMqPT-3" style="edgeStyle=orthogonalEdgeStyle;rounded=0;orthogonalLoop=1;jettySize=auto;html=1;" edge="1" parent="EnYyPFW1mbr46gcVMj3I-1" source="9j5Bc3N9rgv02oG_bQQu-37" target="_skWGeGQ9FX85H6YMqPT-2">
          <mxGeometry x="30" y="40" as="geometry" />
        </mxCell>
        <mxCell id="S8yp5X4-lJhxRksTFqpk-17" value="Marla Hawthorne" style="text;html=1;strokeColor=none;fillColor=none;align=left;verticalAlign=middle;whiteSpace=wrap;rounded=0;dashed=1;" vertex="1" parent="1">
          <mxGeometry x="210" y="733" width="120" height="20" as="geometry" />
        </mxCell>
        <mxCell id="EnYyPFW1mbr46gcVMj3I-3" value="" style="group" connectable="0" vertex="1" parent="1">
          <mxGeometry x="210" y="563" width="280" height="170" as="geometry" />
        </mxCell>
        <mxCell id="9j5Bc3N9rgv02oG_bQQu-6" value="&lt;div&gt;Microchip&lt;/div&gt;&lt;div&gt;&lt;span style=&quot;font-size: 10pt ; font-family: &amp;#34;arial&amp;#34; ; font-style: normal&quot;&gt;PIC18F47Q10-I/P&lt;/span&gt;&lt;/div&gt;" style="rounded=0;whiteSpace=wrap;html=1;strokeWidth=2;fillColor=#E6E6E6;" vertex="1" parent="EnYyPFW1mbr46gcVMj3I-3">
          <mxGeometry width="280" height="170" as="geometry" />
        </mxCell>
        <mxCell id="9j5Bc3N9rgv02oG_bQQu-29" value="&lt;div&gt;DI&lt;/div&gt;P[RC5]" style="rounded=0;whiteSpace=wrap;html=1;" vertex="1" parent="EnYyPFW1mbr46gcVMj3I-3">
          <mxGeometry y="21" width="80" height="40" as="geometry" />
        </mxCell>
        <mxCell id="9j5Bc3N9rgv02oG_bQQu-30" value="&lt;div&gt;ADC&lt;/div&gt;&lt;div&gt;P[RA0]&lt;/div&gt;" style="rounded=0;whiteSpace=wrap;html=1;" vertex="1" parent="EnYyPFW1mbr46gcVMj3I-3">
          <mxGeometry y="60" width="80" height="40" as="geometry" />
        </mxCell>
        <mxCell id="9j5Bc3N9rgv02oG_bQQu-31" value="&lt;div&gt;DO&lt;/div&gt;&lt;span style=&quot;background-color: rgb(255 , 255 , 51)&quot;&gt;RXY&lt;/span&gt;" style="rounded=0;whiteSpace=wrap;html=1;" vertex="1" parent="EnYyPFW1mbr46gcVMj3I-3">
          <mxGeometry x="200" y="60" width="80" height="40" as="geometry" />
        </mxCell>
        <mxCell id="9j5Bc3N9rgv02oG_bQQu-33" value="&lt;div&gt;PWM&lt;br&gt;&lt;/div&gt;&lt;div&gt;&lt;span style=&quot;background-color: rgb(255 , 255 , 51)&quot;&gt;RXY-Z&lt;/span&gt;&lt;/div&gt;" style="rounded=0;whiteSpace=wrap;html=1;" vertex="1" parent="EnYyPFW1mbr46gcVMj3I-3">
          <mxGeometry x="200" y="100" width="80" height="40" as="geometry" />
        </mxCell>
        <mxCell id="9j5Bc3N9rgv02oG_bQQu-36" value="&lt;div&gt;DAC&lt;/div&gt;&lt;div&gt;&lt;span style=&quot;background-color: rgb(255 , 255 , 51)&quot;&gt;RXY&lt;/span&gt;&lt;/div&gt;" style="rounded=0;whiteSpace=wrap;html=1;" vertex="1" parent="EnYyPFW1mbr46gcVMj3I-3">
          <mxGeometry x="112.5" y="130" width="60" height="40" as="geometry" />
        </mxCell>
        <mxCell id="9j5Bc3N9rgv02oG_bQQu-40" value="&lt;div&gt;UART&lt;/div&gt;P[RD0-1]" style="rounded=0;whiteSpace=wrap;html=1;" vertex="1" parent="EnYyPFW1mbr46gcVMj3I-3">
          <mxGeometry x="95.06" width="80" height="30" as="geometry" />
        </mxCell>
        <mxCell id="aC57QmPyYTqG6Asludqg-1" value="&lt;div&gt;ICSP&lt;/div&gt;&lt;span style=&quot;background-color: rgb(255 , 255 , 51)&quot;&gt;RXY-Z&lt;/span&gt;" style="rounded=0;whiteSpace=wrap;html=1;" vertex="1" parent="EnYyPFW1mbr46gcVMj3I-3">
          <mxGeometry x="200" y="20" width="80" height="40" as="geometry" />
        </mxCell>
      </root>
    </mxGraphModel>
  </diagram>
</mxfile>
